<?xml version="1.0" encoding="UTF-8" standalone="no"?>
<svg width="85px" height="90px" viewBox="0 0 85 90" version="1.1" xmlns="http://www.w3.org/2000/svg" xmlns:xlink="http://www.w3.org/1999/xlink">
    <!-- Generator: Sketch 40.3 (33839) - http://www.bohemiancoding.com/sketch -->
    <title>daily-notification</title>
    <desc>Created with Sketch.</desc>
    <defs></defs>
    <g id="Page-1" stroke="none" stroke-width="1" fill="none" fill-rule="evenodd">
        <g id="daily-notification" transform="translate(18.000000, 0.000000)">
            <path d="M42.6,2 C43.7,2 44.8,2.5 45.5,3.2 C46.3,4 46.8,5 46.8,6.1 L46.8,83.9 C46.8,86.2 45,88 42.7,88 L6.3,88 C4,88 2.2,86.2 2.2,83.9 L2.2,6.1 C2.2,3.8 4,2 6.3,2 L42.6,2 L42.6,2 Z M42.6,0 L6.3,0 C2.9,0 0.2,2.7 0.2,6.1 L0.2,83.9 C0.2,87.3 2.9,90 6.3,90 L42.7,90 C46.1,90 48.8,87.3 48.8,83.9 L48.8,6.1 C48.8,4.5 48.2,2.9 47,1.8 C45.8,0.6 44.3,0 42.6,0 L42.6,0 L42.6,0 Z" id="Shape" fill="#303030"></path>
            <rect id="Rectangle-path" fill="#FB9260" x="6.9" y="12.1" width="35.2" height="63.4"></rect>
            <g id="Group" transform="translate(19.000000, 80.000000)">
                <path d="M1.4,1.6 L9.6,1.6" id="Shape" fill="#FFFFFF"></path>
                <path d="M9.6,2.6 L1.4,2.6 C0.8,2.6 0.4,2.2 0.4,1.6 C0.4,1 0.8,0.6 1.4,0.6 L9.6,0.6 C10.2,0.6 10.6,1 10.6,1.6 C10.6,2.2 10.1,2.6 9.6,2.6 L9.6,2.6 Z" id="Shape" fill="#303030"></path>
            </g>
            <circle id="Oval" fill="#303030" cx="24.5" cy="7.1" r="1.4"></circle>
            <g id="Group" transform="translate(33.000000, 28.000000)">
                <g id="Shape">
                    <polygon fill="#FFFFFF" points="32.8 1.7 1.7 1.7 1.7 21.8 21 21.8 24.3 27.2 27.7 21.8 32.8 21.8"></polygon>
                    <path d="M24.3,29.1 L20.4,22.8 L0.7,22.8 L0.7,0.7 L33.8,0.7 L33.8,22.8 L28.2,22.8 L24.3,29.1 L24.3,29.1 Z M2.7,20.8 L21.5,20.8 L24.3,25.3 L27.1,20.8 L31.8,20.8 L31.8,2.7 L2.7,2.7 L2.7,20.8 L2.7,20.8 Z" fill="#303030"></path>
                </g>
                <rect id="Rectangle-path" fill="#303030" x="6.5" y="5.9" width="21" height="2"></rect>
                <rect id="Rectangle-path" fill="#303030" x="6.5" y="10.4" width="9.5" height="2"></rect>
            </g>
        </g>
    </g>
</svg>