<?xml version="1.0" encoding="UTF-8" standalone="no"?>
<svg width="78px" height="90px" viewBox="0 0 78 90" version="1.1" xmlns="http://www.w3.org/2000/svg" xmlns:xlink="http://www.w3.org/1999/xlink">
    <!-- Generator: Sketch 40.3 (33839) - http://www.bohemiancoding.com/sketch -->
    <title>grab-lunch</title>
    <desc>Created with Sketch.</desc>
    <defs></defs>
    <g id="Page-1" stroke="none" stroke-width="1" fill="none" fill-rule="evenodd">
        <g id="grab-lunch">
            <rect id="Rectangle-path" fill="#FB9260" x="57.3" y="14.5" width="19" height="74.5"></rect>
            <g id="Group" fill="#303030">
                <path d="M59.6,13.5 L59.6,13.1 C59.6,5.9 53.7,0 46.5,0 C43.2,0 40.1,1.3 37.8,3.3 C35.5,1.3 32.5,0 29.1,0 C21.9,0 16,5.9 16,13.1 L16,13.5 L0,13.5 L0,90 L77.3,90 L77.3,13.5 L59.6,13.5 L59.6,13.5 Z M57.6,13.1 L57.6,13.5 L42.2,13.5 L42.2,13.1 C42.2,9.9 41.1,7 39.2,4.7 C41.2,3 43.7,2 46.5,2 C52.6,2 57.6,7 57.6,13.1 L57.6,13.1 Z M37.8,6.2 C39.3,8.1 40.2,10.5 40.2,13.1 L40.2,13.5 L35.4,13.5 L35.4,13.1 C35.4,10.5 36.3,8.1 37.8,6.2 L37.8,6.2 Z M18,13.1 C18,7 23,2 29.1,2 C31.9,2 34.4,3 36.4,4.8 C34.5,7.1 33.4,10 33.4,13.2 L33.4,13.6 L18,13.6 L18,13.1 L18,13.1 Z M2,15.5 L16,15.5 L16,19.6 L14.4,19.6 C13.8,19.6 13.4,20 13.4,20.6 C13.4,21.2 13.8,21.6 14.4,21.6 L19.7,21.6 C20.3,21.6 20.7,21.2 20.7,20.6 C20.7,20 20.3,19.6 19.7,19.6 L18,19.6 L18,15.5 L40.2,15.5 L40.2,19.6 L38.6,19.6 C38,19.6 37.6,20 37.6,20.6 C37.6,21.2 38,21.6 38.6,21.6 L43.9,21.6 C44.5,21.6 44.9,21.2 44.9,20.6 C44.9,20 44.5,19.6 43.9,19.6 L42.3,19.6 L42.3,15.5 L56.3,15.5 L56.3,88 L2,88 L2,15.5 L2,15.5 Z M75.3,88 L58.3,88 L58.3,15.5 L75.3,15.5 L75.3,88 L75.3,88 Z" id="Shape"></path>
                <path d="M66.8,71.4 C67.4,71.4 67.8,71 67.8,70.4 L67.8,38.7 C67.8,38.1 67.4,37.7 66.8,37.7 C66.2,37.7 65.8,38.1 65.8,38.7 L65.8,70.4 C65.8,70.9 66.2,71.4 66.8,71.4 L66.8,71.4 Z" id="Shape"></path>
            </g>
            <g id="Group" transform="translate(12.000000, 40.000000)">
                <path d="M32,12.2 C32,5.5 25.4,0.1 17.2,0.1 C9,0.1 2.4,5.5 2.4,12.2 L32,12.2 L32,12.2 Z" id="Shape" fill="#FB9260"></path>
                <path d="M32,21.1 L32,24.3 C32,25.6 31,26.6 29.9,26.6 L4.6,26.6 C3.4,26.6 2.5,25.6 2.5,24.3 L2.5,21.1 L32,21.1 L32,21.1 Z" id="Shape" fill="#FB9260"></path>
                <path d="M32,18.6 L2.5,18.6 C1.4,18.6 0.6,17.7 0.6,16.7 L0.6,16.7 C0.6,15.6 1.5,14.8 2.5,14.8 L32,14.8 C33.1,14.8 33.9,15.7 33.9,16.7 L33.9,16.7 C34,17.7 33.1,18.6 32,18.6 L32,18.6 Z" id="Shape" fill="#303030"></path>
            </g>
        </g>
    </g>
</svg>