<?xml version="1.0" encoding="UTF-8" standalone="no"?>
<svg width="85px" height="90px" viewBox="0 0 85 90" version="1.1" xmlns="http://www.w3.org/2000/svg" xmlns:xlink="http://www.w3.org/1999/xlink">
    <!-- Generator: Sketch 40.3 (33839) - http://www.bohemiancoding.com/sketch -->
    <title>lunch-arrives</title>
    <desc>Created with Sketch.</desc>
    <defs></defs>
    <g id="Page-1" stroke="none" stroke-width="1" fill="none" fill-rule="evenodd">
        <g id="lunch-arrives">
            <path d="M60.5,2 C61.6,2 62.7,2.5 63.4,3.2 C64.1,4 64.6,5 64.6,6.1 L64.6,83.9 C64.6,86.2 62.8,88 60.5,88 L24.1,88 C21.8,88 20,86.2 20,83.9 L20,6.1 C20,3.8 21.9,2 24.1,2 L60.5,2 L60.5,2 Z M60.5,0 L24.1,0 C20.8,0 18,2.7 18,6.1 L18,83.9 C18,87.3 20.7,90 24.1,90 L60.5,90 C63.9,90 66.6,87.3 66.6,83.9 L66.6,6.1 C66.6,4.5 66,2.9 64.8,1.8 C63.6,0.6 62.1,0 60.5,0 L60.5,0 L60.5,0 Z" id="Shape" fill="#303030"></path>
            <rect id="Rectangle-path" fill="#FB9260" x="24.7" y="12.1" width="35.2" height="63.4"></rect>
            <g id="Group" transform="translate(37.000000, 80.000000)">
                <path d="M1.2,1.6 L9.4,1.6" id="Shape" fill="#FFFFFF"></path>
                <path d="M9.4,2.6 L1.2,2.6 C0.6,2.6 0.2,2.2 0.2,1.6 C0.2,1 0.6,0.6 1.2,0.6 L9.4,0.6 C10,0.6 10.4,1 10.4,1.6 C10.4,2.2 10,2.6 9.4,2.6 L9.4,2.6 Z" id="Shape" fill="#303030"></path>
            </g>
            <circle id="Oval" fill="#303030" cx="42.3" cy="7.1" r="1.4"></circle>
            <g id="Group" transform="translate(51.000000, 28.000000)">
                <g id="Shape">
                    <polygon fill="#FFFFFF" points="32.7 1.7 1.6 1.7 1.6 21.8 20.8 21.8 24.2 27.2 27.5 21.8 32.7 21.8"></polygon>
                    <path d="M24.2,29.1 L20.3,22.8 L0.6,22.8 L0.6,0.7 L33.7,0.7 L33.7,22.8 L28.1,22.8 L24.2,29.1 L24.2,29.1 Z M2.6,20.8 L21.4,20.8 L24.2,25.3 L27,20.8 L31.7,20.8 L31.7,2.7 L2.6,2.7 L2.6,20.8 L2.6,20.8 Z" fill="#303030"></path>
                </g>
                <rect id="Rectangle-path" fill="#303030" x="6.4" y="5.9" width="21" height="2"></rect>
                <rect id="Rectangle-path" fill="#303030" x="6.4" y="10.4" width="9.5" height="2"></rect>
            </g>
            <g id="Group" transform="translate(0.000000, 40.000000)">
                <g id="Shape">
                    <polygon fill="#FFFFFF" points="1 1 32.1 1 32.1 21.1 12.8 21.1 9.5 26.6 6.1 21.1 1 21.1"></polygon>
                    <path d="M9.5,28.5 L5.6,22.2 L0,22.2 L0,0 L33.1,0 L33.1,22.1 L13.4,22.1 L9.5,28.5 L9.5,28.5 Z M2,20.1 L6.7,20.1 L9.5,24.6 L12.3,20.1 L31.1,20.1 L31.1,2 L2,2 L2,20.1 L2,20.1 Z" fill="#303030"></path>
                </g>
                <rect id="Rectangle-path" fill="#303030" x="6.3" y="5.2" width="21" height="2"></rect>
                <rect id="Rectangle-path" fill="#303030" x="6.3" y="9.7" width="9.5" height="2"></rect>
            </g>
        </g>
    </g>
</svg>